<svg width="201" height="51" viewBox="0 0 201 51" fill="none" xmlns="http://www.w3.org/2000/svg">
<g clip-path="url(#clip0_1123_2886)">
<path d="M13.6257 38.539C15.2993 38.4081 16.3857 37.3184 16.841 35.1832L22.3661 11.3441C22.8738 9.2089 22.3238 8.2484 20.6096 8.1141L20.7348 7.6347H28.5986L28.4734 8.1141C26.7591 8.1566 25.7962 8.89781 25.2581 11.3441L19.7313 35.2274C19.2236 37.3184 20.024 38.4081 21.4878 38.539L21.3626 39.0184H13.5005L13.6257 38.539Z" fill="black"/>
<path d="M43.0637 38.539C44.7373 38.4081 45.8237 37.3184 46.2789 35.1832L51.8041 11.3441C52.3118 9.2089 51.7618 8.2484 50.0475 8.1141L50.1745 7.6347H58.0433L57.9181 8.1141C56.2039 8.1566 55.2427 8.89781 54.7029 11.3441L49.1693 35.2274C48.6616 37.3184 49.462 38.4081 50.9258 38.539L50.8006 39.0184H42.9385L43.0637 38.539Z" fill="black"/>
<path d="M148.392 7.6398L148.265 8.1192C146.425 8.1617 145.254 9.1647 144.921 11.7793L141.575 35.0523C141.283 37.2759 141.868 38.4523 143.372 38.539L143.247 39.0184H135.427L135.553 38.539C137.099 38.4965 138.313 37.3184 138.599 35.2274L142.369 10.3853L135.845 22.7188C135.219 23.9836 134.507 25.2909 133.796 26.6424L132.082 29.8724L129.824 34.2737C128.779 36.3137 128.361 37.5037 128.361 38.5441C127.399 38.848 126.473 39.2574 125.601 39.7647L122.629 10.0793L116.358 34.5304C115.522 37.145 116.567 38.4081 118.95 38.539L118.825 39.0184H110.88L111.005 38.539C113.222 38.4965 114.728 37.145 115.564 34.5729L121.416 11.8677C122.209 9.4265 121.5 8.1617 119.201 8.1192L119.284 7.6398H125.347L128.318 35.751L132.082 28.6892L135.378 22.4145C139.191 15.1793 141.365 10.8647 141.909 9.52C142.156 8.91427 142.353 8.28874 142.496 7.65L148.392 7.6398Z" fill="black"/>
<path d="M171.995 16.6005H171.487C171.318 14.6387 170.834 11.4308 170.374 10.6029C169.914 9.7308 169.12 9.1205 167.947 8.7329C166.827 8.33 164.993 8.16 162.436 8.16H157.547L154.657 20.757H160.302C163.146 20.757 164.4 19.669 165.028 17.357H165.536L163.773 24.854H163.312C163.82 22.1085 163.104 21.284 160.134 21.284H154.531L150.768 37.6278C152.064 38.1939 153.814 38.4999 156.037 38.4999C159.048 38.4999 161.607 37.9763 163.314 36.9699C165.021 35.9635 167.602 32.5499 169.237 29.5069H169.78L164.534 39.5369C163.321 39.189 161.648 39.0144 159.515 39.0133H145.163L145.29 38.5339C147.004 38.403 147.965 37.5326 148.468 35.2665L153.993 11.2999C154.501 9.0338 153.951 8.2484 152.279 8.1192L152.404 7.6398H165.534C168.086 7.6398 170.051 7.3338 171.347 6.7677L171.995 16.6005Z" fill="black"/>
<path d="M201 7.63979L200.915 8.11919C198.573 8.16169 197.362 9.29559 196.526 12.7823L191.507 33.8759C191.135 35.2796 191.164 36.7599 191.589 38.148C190.626 38.6276 189.727 39.228 188.914 39.9347L178.278 11.4308L173.733 33.7008C173.022 36.7948 173.902 38.4064 176.368 38.5815L176.285 39.0167H167.795L167.878 38.5815C170.472 38.4506 172.146 36.7948 172.897 33.7008L177.315 13.26C178.111 9.90419 177.233 8.20419 174.764 8.11749L174.89 7.63809H180.118L190.586 35.36L195.813 12.784C196.526 9.51489 195.773 8.25009 193.221 8.12089L193.305 7.64149L201 7.63979Z" fill="black"/>
<path d="M48.3706 1.67794C47.8815 2.67074 47.3011 3.04644 46.6987 3.04644C45.6833 3.04644 45.5463 2.54664 44.1603 1.71024C42.5002 0.717443 40.6388 -0.0458565 38.6826 4.35015e-05C37.3482 0.0275442 36.0445 0.406846 34.9021 1.09994C33.6432 1.85726 32.6407 2.97813 32.0253 4.31634C31.3163 5.87864 31.2469 7.52424 31.5329 9.19534C31.8815 11.2353 32.6176 13.1461 33.374 15.0535C34.4841 17.8449 35.6535 20.6142 36.6942 23.4328C37.7468 26.282 38.3424 29.2281 38.1309 32.3017C37.9955 34.2652 37.7163 36.2015 37.1054 38.0817C35.3404 43.5064 31.8307 47.1563 26.4663 49.1538C22.1934 50.7433 18.2269 50.9048 13.8694 49.5771C8.65389 47.9893 5.26774 44.744 3.62458 39.5097C2.77846 36.8305 2.77846 34.0986 3.29629 31.3633C3.94949 27.88 5.36081 24.7707 7.90762 22.2564C9.39509 20.7859 11.1229 19.7557 13.1366 19.2848L13.2466 18.9091C13.0283 18.9499 12.8117 18.9975 12.5985 19.0553C8.7605 20.1042 5.56895 22.1714 3.15921 25.3453C-0.0881802 29.6157 -0.793841 34.374 0.867931 39.44C2.06603 43.0984 4.50962 45.8048 7.74178 47.8074C10.358 49.4258 13.2195 50.3472 16.2571 50.7535C18.7768 51.0935 20.8803 51.1139 23.3729 50.5937C30.1182 49.1827 35.3303 45.5685 38.7976 39.5437C40.3092 36.9065 41.147 33.9343 41.2361 30.8924C41.3174 28.7623 40.9112 26.7087 40.3359 24.6789C39.5101 21.7719 38.3373 18.9924 37.2036 16.1993C36.2237 13.7904 35.2575 11.373 34.3521 8.93354C33.8445 7.54634 33.4789 6.10644 33.6465 4.59344C33.77 3.49184 34.1931 2.53814 35.0358 1.80374C36.3625 0.647743 38.339 0.433543 40.0211 0.681743C41.631 0.928645 43.0849 1.78736 44.0825 3.08044C44.3138 3.37825 44.5225 3.69307 44.7069 4.02224C45.7984 5.96364 46.1419 8.37934 45.6546 11.2608L46.1335 11.322L48.687 1.71874L48.3706 1.67794Z" fill="black"/>
<path d="M91.2212 7.6398L91.0943 8.1192C89.2548 8.1617 88.0838 9.1647 87.7504 11.7793L84.4032 35.0523C84.1121 37.2759 84.6976 38.4523 86.202 38.539L86.0768 39.0184H78.257L78.3822 38.539C79.9289 38.4965 81.1423 37.3184 81.4282 35.2274L85.1985 10.3853L78.675 22.7188C78.0472 23.9836 77.3364 25.2909 76.6257 26.6424L74.9115 29.8724L72.654 34.2737C71.6082 36.3137 71.1902 37.5037 71.1902 38.5441C70.2284 38.848 69.3029 39.2574 68.4302 39.7647L65.4586 10.0793L59.1872 34.5304C58.3513 37.145 59.3971 38.4081 61.7797 38.539L61.6545 39.0184H53.7095L53.8347 38.539C56.0515 38.4965 57.5576 37.145 58.3919 34.5729L64.2453 11.8677C65.039 9.4265 64.3299 8.1617 62.0285 8.1192L62.1131 7.6398H68.1764L71.1479 35.751L74.9115 28.6892L78.2147 22.4145C82.0205 15.1793 84.195 10.8647 84.7383 9.52C84.9861 8.91455 85.182 8.28895 85.3238 7.65L91.2212 7.6398Z" fill="black"/>
<path d="M114.825 16.6005H114.317C114.148 14.6387 113.664 11.4308 113.204 10.6029C112.743 9.73079 111.948 9.12049 110.777 8.73289C109.657 8.32999 107.816 8.15999 105.265 8.15999H100.371L97.4946 20.7553H103.14C105.985 20.7553 107.238 19.6673 107.866 17.3553H108.374L106.611 24.854H106.15C106.658 22.1085 105.942 21.284 102.972 21.284H97.3609L93.5974 37.6244C94.8936 38.1905 96.6434 38.4965 98.867 38.4965C101.877 38.4965 104.436 37.9729 106.144 36.9665C107.851 35.9601 110.432 32.5465 112.066 29.5035H112.61L107.364 39.5335C106.152 39.1856 104.48 39.011 102.346 39.0099H87.9961L88.123 38.5305C89.8372 38.3996 90.7984 37.5292 91.301 35.2631L96.8211 11.2931C97.3288 9.02699 96.7788 8.2416 95.1052 8.1124L95.2321 7.633H108.362C110.914 7.633 112.879 7.32699 114.175 6.76089L114.825 16.6005Z" fill="black"/>
</g>
<defs>
<clipPath id="clip0_1123_2886">
<rect width="201" height="51" fill="white"/>
</clipPath>
</defs>
</svg>
